<?xml version="1.0" encoding="UTF-8" standalone="no"?>
<!-- Created with Inkscape (http://www.inkscape.org/) -->

<svg
   width="240.20183mm"
   height="195.25879mm"
   viewBox="0 0 240.20183 195.25879"
   version="1.1"
   id="svg5"
   xml:space="preserve"
   xmlns:inkscape="http://www.inkscape.org/namespaces/inkscape"
   xmlns:sodipodi="http://sodipodi.sourceforge.net/DTD/sodipodi-0.dtd"
   xmlns="http://www.w3.org/2000/svg"
   xmlns:svg="http://www.w3.org/2000/svg"><sodipodi:namedview
     id="namedview7"
     pagecolor="#ffffff"
     bordercolor="#000000"
     borderopacity="0.25"
     inkscape:showpageshadow="2"
     inkscape:pageopacity="0.0"
     inkscape:pagecheckerboard="0"
     inkscape:deskcolor="#d1d1d1"
     inkscape:document-units="mm"
     showgrid="false" /><defs
     id="defs2" /><g
     inkscape:label="Layer 1"
     inkscape:groupmode="layer"
     id="layer1"
     transform="translate(-69.978288,-365.52868)"><path
       style="fill:#ffffff;stroke-width:0.264583"
       d="m 147.58902,560.42911 c -11.72798,-1.47307 -24.45325,-6.06939 -34.26354,-12.37587 -12.71804,-8.17571 -22.779233,-19.33124 -29.473546,-32.67931 -3.44677,-6.87267 -5.49472,-12.96906 -6.77335,-20.16316 -1.59737,-8.98745 -1.69398,-21.03308 -0.23661,-29.50104 0.82329,-4.78362 1.92073,-8.4635 5.11562,-17.15322 0.954,-2.5948 1.73455,-4.94316 1.73455,-5.21859 0,-0.27542 -0.78161,-2.91491 -1.73692,-5.86552 -2.58601,-7.98729 -4.0321,-12.52525 -4.74484,-14.88975 -4.83888,-16.05304 -6.87137,-25.10215 -7.19067,-32.01459 -0.22779,-4.93124 0.47333,-7.63869 2.3638,-9.12812 0.76641,-0.60383 1.05933,-0.66012 3.36211,-0.64606 2.01995,0.0123 3.10697,0.18427 5.45564,0.8629 6.293851,1.81857 14.417742,5.40821 24.980466,11.03793 3.10196,1.65328 7.1573,4.00515 17.59479,10.20401 l 2.11667,1.25709 4.7625,-1.59752 c 13.52408,-4.53651 17.23803,-5.10711 33.25627,-5.10945 l 11.03127,-0.002 0.87498,-0.80948 c 5.52006,-5.10689 14.63034,-12.41943 22.54369,-18.09513 14.91988,-10.701 23.32109,-14.53528 27.34736,-12.48123 3.05202,1.55702 4.15619,6.04391 4.11003,16.70147 -0.0482,11.12198 -1.08478,21.25595 -4.16794,40.74583 -0.2187,1.38245 -0.39976,2.65619 -0.40237,2.83053 -0.003,0.17435 0.56581,1.00779 1.26316,1.85209 7.29081,8.82719 12.86567,20.48618 15.63777,32.7041 1.33239,5.87243 1.61542,8.53468 1.61242,15.16703 -0.005,11.02267 -1.05024,19.07944 -3.42912,26.43105 -0.73014,2.2564 -1.58964,4.42022 -4.7327,11.91471 -0.73583,1.75458 -1.4162,3.67993 -1.51193,4.27856 -0.17194,1.07526 -0.16013,1.09551 0.97584,1.67504 3.2924,1.67966 12.90902,4.33204 17.03502,4.69847 3.11606,0.27674 7.85804,-0.0645 10.31875,-0.74247 7.92248,-2.1829 13.96333,-7.87024 16.31263,-15.35802 0.52827,-1.68373 0.61661,-2.50189 0.59886,-5.54692 -0.0247,-4.2435 -0.6535,-7.30228 -2.75946,-13.42419 -6.1953,-18.00941 -6.37623,-18.78885 -6.37087,-27.44603 0.006,-9.68482 1.26086,-14.22486 5.79601,-20.9696 5.77345,-8.58634 16.0451,-15.15995 26.79277,-17.1467 2.9104,-0.538 3.5693,-0.44003 4.90032,0.72863 1.95881,1.71985 2.82027,4.03507 2.3782,6.39152 -0.39804,2.12174 -1.95066,3.1023 -7.62988,4.81865 -4.78495,1.44609 -8.15312,3.20312 -11.70165,6.10427 -2.87869,2.35351 -6.25071,6.83893 -7.43892,9.89514 -0.25111,0.64589 -0.54219,1.29341 -0.64684,1.43893 -0.10466,0.14552 -0.40963,1.09802 -0.67771,2.11667 -0.36757,1.39665 -0.48898,2.82801 -0.4937,5.82083 -0.009,5.71509 0.27019,6.97067 4.17736,18.78542 3.67583,11.1152 4.68137,15.14367 5.21734,20.90208 0.90505,9.7239 -1.99977,16.94134 -10.06386,25.00505 -7.39839,7.39803 -14.22736,10.09509 -25.53435,10.08462 -9.12529,-0.008 -14.92195,-1.36271 -24.46001,-5.71455 -2.0808,-0.94941 -3.87541,-1.72618 -3.98803,-1.72618 -0.11261,0 -2.3899,2.17454 -5.06065,4.83231 -8.36227,8.32166 -14.86356,13.12837 -24.17048,17.87037 -9.95658,5.07304 -19.24275,7.78435 -30.03021,8.76805 -4.06974,0.3711 -16.67136,0.29599 -19.97604,-0.11906 z m 8.02791,-62.06173 c 10.86887,-0.89685 22.0305,-4.28956 30.88389,-9.38752 17.93595,-10.32786 25.24013,-26.01346 18.58643,-39.914 -3.71117,-7.75317 -11.95398,-14.70064 -22.04406,-18.57989 -1.30969,-0.50353 -2.67891,-1.03014 -3.04271,-1.17025 -2.56083,-0.98626 -9.9676,-2.64294 -14.15521,-3.16612 -8.41728,-1.05162 -20.5434,-0.70456 -28.44271,0.81404 -3.94879,0.75914 -10.0428,2.46377 -12.30312,3.44146 -0.29104,0.12589 -1.55221,0.64479 -2.80259,1.1531 -3.29028,1.33759 -8.54834,4.07616 -10.69116,5.56829 -7.6934,5.35725 -14.442467,13.15831 -16.423895,18.98395 -5.222647,15.35522 4.434467,30.49016 24.359585,38.17711 6.31882,2.43776 13.34787,4.01003 19.97785,4.46869 2.30108,0.15919 12.41757,-0.0852 16.0977,-0.38886 z m -13.98132,-15.7745 c -2.6e-4,-0.18809 7.9867,-36.38089 8.05786,-36.51415 0.0352,-0.0659 5.28318,-0.54209 5.36385,-0.48674 0.0905,0.0621 -8.01986,36.63444 -8.1496,36.74956 -0.24068,0.21353 -5.27184,0.45337 -5.27211,0.25133 z m -23.01846,-10.62376 -9.12813,-2.82918 -0.2273,-2.45794 c -0.12502,-1.35187 -0.18455,-2.49743 -0.13229,-2.54568 0.0523,-0.0483 4.04884,-2.06332 8.88131,-4.47792 l 8.7863,-4.39017 0.13721,0.85512 c 0.0755,0.47032 0.16975,1.66178 0.20953,2.64768 l 0.0723,1.79255 -5.40433,2.58032 c -2.97238,1.41919 -5.44682,2.70782 -5.49876,2.86363 -0.0551,0.16547 2.33419,0.97712 5.74439,1.95135 3.21136,0.91743 5.88831,1.74811 5.94878,1.84596 0.0605,0.0978 0.19242,1.2703 0.29321,2.60546 0.15031,1.99105 0.11696,2.424 -0.18543,2.40777 -0.20278,-0.0109 -4.47635,-1.29291 -9.49682,-2.84895 z m 54.25071,-5.53298 -0.61523,-2.55203 0.60054,-0.39875 c 3.14117,-2.08566 9.37989,-6.56595 9.4498,-6.78631 0.0562,-0.17723 -1.87254,-0.49649 -5.2741,-0.87299 -7.87299,-0.87141 -6.93416,-0.47105 -7.62079,-3.24988 -0.32178,-1.3023 -0.51366,-2.43921 -0.4264,-2.52647 0.19152,-0.19152 18.66067,2.24648 19.20966,2.53575 0.2121,0.11176 0.64242,1.22473 0.95625,2.47328 l 0.5706,2.27009 -7.83542,5.6682 c -4.30948,3.11751 -7.96237,5.74086 -8.11754,5.82967 -0.17648,0.10101 -0.51253,-0.79424 -0.89737,-2.39056 z"
       id="path271"
       inkscape:export-filename="white.png"
       inkscape:export-xdpi="96"
       inkscape:export-ydpi="96" /></g></svg>
